<svg enable-background="new 0 0 1000 1000" viewBox="0 0 1000 1000" xmlns="http://www.w3.org/2000/svg"><path d="m172 521.90039v12.29883c0 58.60153 15.5876 113.73443 42.81641 161.46484l46.79101-46.79101c-16.84525-34.73449-26.30664-73.65634-26.30664-114.67383v-12.29883z"/><path d="m864.34375 135.65625-728.6875 728.6875 44.75977 44.75977 117.2871-117.28711c47.99618 37.82547 106.69581 62.60545 170.69727 68.7832v66.09961h-100.80078v63.30078h264.80078v-63.30078h-100.80078v-66.09961c77.6-7.5 147.6-42.39883 200-94.79883 59.5-59.4 96.40039-141.50117 96.40039-231.70117v-12.19922h-63.19922v12.29883c0 72.7-29.80078 138.90039-77.80078 186.90039s-114.10039 77.80078-186.90039 77.80078c-58.77394 0-113.23841-19.43303-157.30469-52.17578l41.875-41.875c33.50806 20.97916 73.08019 33.15039 115.33008 33.15039 60.1 0 114.80078-24.60078 154.30078-64.30078 39.6-39.5 64.19922-94.19883 64.19922-154.29883v-148.38086l190.60352-190.60351z"/><path d="m500 10c-60.1 0-114.80078 24.599219-154.30078 64.199219-39.6 39.500001-64.19922 94.200781-64.19922 154.300781v291c0 32.03139 6.99153 62.49824 19.51367 89.9668l414.83789-414.83789c-7.33568-46.59908-29.53817-88.41708-61.55078-120.429691-39.5-39.6-94.20078-64.199219-154.30078-64.199219z"/></svg>