<?xml version="1.0" encoding="UTF-8" standalone="no"?>
<!-- Svg Vector Icons : http://www.onlinewebfonts.com/icon -->

<svg
   xmlns:dc="http://purl.org/dc/elements/1.1/"
   xmlns:cc="http://creativecommons.org/ns#"
   xmlns:rdf="http://www.w3.org/1999/02/22-rdf-syntax-ns#"
   xmlns:svg="http://www.w3.org/2000/svg"
   xmlns="http://www.w3.org/2000/svg"
   xmlns:sodipodi="http://sodipodi.sourceforge.net/DTD/sodipodi-0.dtd"
   xmlns:inkscape="http://www.inkscape.org/namespaces/inkscape"
   version="1.1"
   x="0px"
   y="0px"
   viewBox="0 0 1000 1000"
   enable-background="new 0 0 1000 1000"
   xml:space="preserve"
   id="svg12"
   sodipodi:docname="mic-slash.svg"
   inkscape:version="0.92.1 r"><defs
     id="defs16" /><sodipodi:namedview
     pagecolor="#ffffff"
     bordercolor="#666666"
     borderopacity="1"
     objecttolerance="10"
     gridtolerance="10"
     guidetolerance="10"
     inkscape:pageopacity="0"
     inkscape:pageshadow="2"
     inkscape:window-width="1920"
     inkscape:window-height="1042"
     id="namedview14"
     showgrid="false"
     showguides="true"
     inkscape:guide-bbox="true"
     inkscape:zoom="0.472"
     inkscape:cx="-154.14498"
     inkscape:cy="477.12481"
     inkscape:window-x="0"
     inkscape:window-y="0"
     inkscape:window-maximized="1"
     inkscape:current-layer="svg12"><sodipodi:guide
       position="235.3,478.1"
       orientation="1,0"
       id="guide4495"
       inkscape:locked="false" /><sodipodi:guide
       position="172,478.1"
       orientation="1,0"
       id="guide4497"
       inkscape:locked="false" /></sodipodi:namedview><title
     id="title2"> - http://cdn.onlinewebfonts.com/svg/img_422702.svg </title><metadata
     id="metadata4"> Svg Vector Icons : http://www.onlinewebfonts.com/icon <rdf:RDF><cc:Work
     rdf:about=""><dc:format>image/svg+xml</dc:format><dc:type
       rdf:resource="http://purl.org/dc/dcmitype/StillImage" /></cc:Work></rdf:RDF></metadata><path
     d="m 172,521.90039 v 12.29883 c 0,58.60153 15.5876,113.73443 42.81641,161.46484 l 46.79101,-46.79101 C 244.76217,614.13856 235.30078,575.21671 235.30078,534.19922 v -12.29883 z"
     id="path4519" /><path
     d="m 864.34375,135.65625 -728.6875,728.6875 44.75977,44.75977 117.2871,-117.28711 c 47.99618,37.82547 106.69581,62.60545 170.69727,68.7832 v 66.09961 H 367.59961 V 990 H 632.40039 V 926.69922 H 531.59961 v -66.09961 c 77.6,-7.5 147.6,-42.39883 200,-94.79883 C 791.09961,706.40078 828,624.29961 828,534.09961 v -12.19922 h -63.19922 v 12.29883 c 0,72.7 -29.80078,138.90039 -77.80078,186.90039 -48,48 -114.10039,77.80078 -186.90039,77.80078 -58.77394,0 -113.23841,-19.43303 -157.30469,-52.17578 l 41.875,-41.875 C 418.17798,725.82877 457.75011,738 500,738 c 60.1,0 114.80078,-24.60078 154.30078,-64.30078 39.6,-39.5 64.19922,-94.19883 64.19922,-154.29883 V 371.01953 L 909.10352,180.41602 Z"
     id="path6"
     inkscape:connector-curvature="0"
     sodipodi:nodetypes="cccccccccccccsccsssccscsccc" /><path
     d="M 500,10 C 439.9,10 385.19922,34.599219 345.69922,74.199219 306.09922,113.69922 281.5,168.4 281.5,228.5 v 291 c 0,32.03139 6.99153,62.49824 19.51367,89.9668 L 715.85156,194.62891 C 708.51588,148.02983 686.31339,106.21183 654.30078,74.199219 614.80078,34.599219 560.1,10 500,10 Z"
     id="path4515" /></svg>