<?xml version="1.0" encoding="UTF-8"?>
<!-- Svg Vector Icons : http://www.onlinewebfonts.com/icon -->
<!DOCTYPE svg PUBLIC "-//W3C//DTD SVG 1.1//EN" "http://www.w3.org/Graphics/SVG/1.1/DTD/svg11.dtd">
<svg version="1.1" xmlns="http://www.w3.org/2000/svg" xmlns:xlink="http://www.w3.org/1999/xlink" x="0px" y="0px" viewBox="0 0 1000 1000" enable-background="new 0 0 1000 1000" xml:space="preserve"><title> - http://cdn.onlinewebfonts.com/svg/img_422702.svg </title>
<metadata> Svg Vector Icons : http://www.onlinewebfonts.com/icon </metadata>
<g><path d="M828,521.8v12.3c0,90.2-36.9,172.3-96.4,231.7c-52.4,52.4-122.4,87.3-200,94.8v66.1h100.8V990H367.6v-63.3h100.8v-66.1c-77.7-7.5-147.6-42.4-200-94.8C208.9,706.4,172,624.4,172,534.2v-12.3h63.3v12.3c0,72.8,29.8,139,77.8,186.9c48,48,114.2,77.8,187,77.8s138.9-29.8,186.9-77.8c48-48,77.8-114.2,77.8-186.9v-12.3H828L828,521.8z"/><path d="M718.5,228.5v290.9c0,60.1-24.6,114.8-64.2,154.3C614.8,713.4,560.1,738,500,738c-60.1,0-114.8-24.6-154.3-64.2c-39.6-39.6-64.2-94.2-64.2-154.3V228.5c0-60.1,24.6-114.8,64.2-154.3C385.2,34.6,439.9,10,500,10c60.1,0,114.8,24.6,154.3,64.2C693.9,113.8,718.5,168.4,718.5,228.5z"/></g>
</svg>